<svg version="1.1" xmlns="http://www.w3.org/2000/svg" viewBox="0 0 920.3170929099163 310.6638057432119" width="1840.6341858198325" height="621.3276114864238"><!-- svg-source:excalidraw --><metadata></metadata><defs><style class="style-fonts">
      </style></defs><rect x="0" y="0" width="920.3170929099163" height="310.6638057432119" fill="#ffffff"></rect><g stroke-linecap="round" transform="translate(10 20.60074637459178) rotate(0 90.05872472245309 27.517943665193997)"><path d="M0 0 C51.95 0, 103.89 0, 180.12 0 M0 0 C65.16 0, 130.31 0, 180.12 0 M180.12 0 C180.12 12.91, 180.12 25.81, 180.12 55.04 M180.12 0 C180.12 14.27, 180.12 28.54, 180.12 55.04 M180.12 55.04 C109.33 55.04, 38.55 55.04, 0 55.04 M180.12 55.04 C123.06 55.04, 66 55.04, 0 55.04 M0 55.04 C0 38.9, 0 22.76, 0 0 M0 55.04 C0 38.84, 0 22.65, 0 0" stroke="#1e1e1e" stroke-width="2" fill="none"></path></g><g transform="translate(63.47962315995309 40.06343743961082) rotate(0 36.5791015625 8.055252600174981)"><text x="36.5791015625" y="11.837992654435126" font-family="Helvetica, Segoe UI Emoji" font-size="14.009134956826037px" fill="#1e1e1e" text-anchor="middle" style="white-space: pre;" direction="ltr" dominant-baseline="alphabetic">Spring Boot</text></g><g stroke-linecap="round" transform="translate(10 95.53004387540204) rotate(0 90.05872472245309 27.517943665194025)"><path d="M0 0 C48.18 0, 96.36 0, 180.12 0 M0 0 C53.04 0, 106.07 0, 180.12 0 M180.12 0 C180.12 13.28, 180.12 26.55, 180.12 55.04 M180.12 0 C180.12 21.41, 180.12 42.82, 180.12 55.04 M180.12 55.04 C119.67 55.04, 59.21 55.04, 0 55.04 M180.12 55.04 C121.88 55.04, 63.65 55.04, 0 55.04 M0 55.04 C0 34.9, 0 14.76, 0 0 M0 55.04 C0 37.6, 0 20.16, 0 0" stroke="#1e1e1e" stroke-width="2" fill="none"></path></g><g transform="translate(83.32434972245309 114.99273494042109) rotate(0 16.734375 8.055252600174981)"><text x="16.734375" y="11.837992654435126" font-family="Helvetica, Segoe UI Emoji" font-size="14.009134956826037px" fill="#1e1e1e" text-anchor="middle" style="white-space: pre;" direction="ltr" dominant-baseline="alphabetic">nginx</text></g><g stroke-linecap="round" transform="translate(10 170.57898114411296) rotate(0 90.05872472245309 27.517943665194025)"><path d="M0 0 C55.38 0, 110.77 0, 180.12 0 M0 0 C70.62 0, 141.24 0, 180.12 0 M180.12 0 C180.12 16.89, 180.12 33.78, 180.12 55.04 M180.12 0 C180.12 21.71, 180.12 43.41, 180.12 55.04 M180.12 55.04 C127.84 55.04, 75.57 55.04, 0 55.04 M180.12 55.04 C137.2 55.04, 94.28 55.04, 0 55.04 M0 55.04 C0 40.33, 0 25.63, 0 0 M0 55.04 C0 41.69, 0 28.35, 0 0" stroke="#1e1e1e" stroke-width="2" fill="none"></path></g><g transform="translate(68.93128331620309 190.041672209132) rotate(0 31.12744140625 8.055252600174981)"><text x="31.12744140625" y="11.837992654435126" font-family="Helvetica, Segoe UI Emoji" font-size="14.009134956826037px" fill="#1e1e1e" text-anchor="middle" style="white-space: pre;" direction="ltr" dominant-baseline="alphabetic">MongoDB</text></g><g stroke-linecap="round" transform="translate(10 245.62791841282387) rotate(0 90.05872472245309 27.517943665194025)"><path d="M0 0 C65.95 0, 131.9 0, 180.12 0 M0 0 C46.68 0, 93.37 0, 180.12 0 M180.12 0 C180.12 19.54, 180.12 39.08, 180.12 55.04 M180.12 0 C180.12 19.46, 180.12 38.93, 180.12 55.04 M180.12 55.04 C108.72 55.04, 37.31 55.04, 0 55.04 M180.12 55.04 C124.32 55.04, 68.52 55.04, 0 55.04 M0 55.04 C0 38.6, 0 22.16, 0 0 M0 55.04 C0 36.33, 0 17.62, 0 0" stroke="#1e1e1e" stroke-width="2" fill="none"></path></g><g transform="translate(82.16224034745309 265.0906094778429) rotate(0 17.896484375 8.055252600174981)"><text x="17.896484375" y="11.837992654435126" font-family="Helvetica, Segoe UI Emoji" font-size="14.009134956826037px" fill="#1e1e1e" text-anchor="middle" style="white-space: pre;" direction="ltr" dominant-baseline="alphabetic">Redis</text></g><g stroke-linecap="round" transform="translate(260.1631242290364 95.53004387540204) rotate(0 90.05872472245312 27.517943665194025)"><path d="M0 0 C54.74 0, 109.47 0, 180.12 0 M0 0 C50.85 0, 101.71 0, 180.12 0 M180.12 0 C180.12 19.09, 180.12 38.19, 180.12 55.04 M180.12 0 C180.12 19.28, 180.12 38.55, 180.12 55.04 M180.12 55.04 C128.3 55.04, 76.48 55.04, 0 55.04 M180.12 55.04 C108.53 55.04, 36.93 55.04, 0 55.04 M0 55.04 C0 41.59, 0 28.14, 0 0 M0 55.04 C0 42.74, 0 30.45, 0 0" stroke="#1e1e1e" stroke-width="2" fill="none"></path></g><g transform="translate(308.6732649671145 115.56811012614787) rotate(0 41.548583984375 7.479877414448197)"><text x="41.548583984375" y="10.992421750546901" font-family="Helvetica, Segoe UI Emoji" font-size="13.00848245990989px" fill="#1e1e1e" text-anchor="middle" style="white-space: pre;" direction="ltr" dominant-baseline="alphabetic">nginx-exporter</text></g><g stroke-linecap="round" transform="translate(260.1631242290364 170.57898114411296) rotate(0 90.05872472245312 27.517943665194025)"><path d="M0 0 C60.33 0, 120.66 0, 180.12 0 M0 0 C42.55 0, 85.09 0, 180.12 0 M180.12 0 C180.12 12.39, 180.12 24.79, 180.12 55.04 M180.12 0 C180.12 16.78, 180.12 33.56, 180.12 55.04 M180.12 55.04 C117.67 55.04, 55.21 55.04, 0 55.04 M180.12 55.04 C110.43 55.04, 40.74 55.04, 0 55.04 M0 55.04 C0 37.27, 0 19.51, 0 0 M0 55.04 C0 37.66, 0 20.29, 0 0" stroke="#1e1e1e" stroke-width="2" fill="none"></path></g><g transform="translate(297.1078352796145 190.6170473948588) rotate(0 53.114013671875 7.479877414448197)"><text x="53.114013671875" y="10.992421750546901" font-family="Helvetica, Segoe UI Emoji" font-size="13.00848245990989px" fill="#1e1e1e" text-anchor="middle" style="white-space: pre;" direction="ltr" dominant-baseline="alphabetic">mongodb-exporter</text></g><g stroke-linecap="round" transform="translate(260.1631242290364 245.62791841282387) rotate(0 90.05872472245312 27.517943665194025)"><path d="M0 0 C50.43 0, 100.86 0, 180.12 0 M0 0 C45.55 0, 91.11 0, 180.12 0 M180.12 0 C180.12 21.23, 180.12 42.46, 180.12 55.04 M180.12 0 C180.12 21.05, 180.12 42.1, 180.12 55.04 M180.12 55.04 C127.48 55.04, 74.84 55.04, 0 55.04 M180.12 55.04 C128.17 55.04, 76.23 55.04, 0 55.04 M0 55.04 C0 35.54, 0 16.04, 0 0 M0 55.04 C0 40.04, 0 25.04, 0 0" stroke="#1e1e1e" stroke-width="2" fill="none"></path></g><g transform="translate(310.1237044202395 265.6659846635697) rotate(0 40.09814453125 7.479877414448197)"><text x="40.09814453125" y="10.992421750546901" font-family="Helvetica, Segoe UI Emoji" font-size="13.00848245990989px" fill="#1e1e1e" text-anchor="middle" style="white-space: pre;" direction="ltr" dominant-baseline="alphabetic">redis-exporter</text></g><g stroke-linecap="round" transform="translate(510.4453128328462 10) rotate(0 80.05219975329163 145)"><path d="M0 0 C57.92 0, 115.83 0, 160.1 0 M0 0 C37.55 0, 75.09 0, 160.1 0 M160.1 0 C160.1 75.2, 160.1 150.41, 160.1 290 M160.1 0 C160.1 113.97, 160.1 227.94, 160.1 290 M160.1 290 C109.39 290, 58.67 290, 0 290 M160.1 290 C113.16 290, 66.22 290, 0 290 M0 290 C0 204.68, 0 119.36, 0 0 M0 290 C0 197.89, 0 105.77, 0 0" stroke="#1e1e1e" stroke-width="2" fill="none"></path></g><g transform="translate(547.3377759528371 145.79399702837145) rotate(0 43.15973663330078 9.20600297162855)"><text x="43.15973663330078" y="13.529134462211571" font-family="Helvetica, Segoe UI Emoji" font-size="16.010439950658327px" fill="#1e1e1e" text-anchor="middle" style="white-space: pre;" direction="ltr" dominant-baseline="alphabetic">Prometheus</text></g><g stroke-linecap="round" transform="translate(750.212693403333 10.250857577856209) rotate(0 80.05219975329163 145)"><path d="M0 0 C47.14 0, 94.29 0, 160.1 0 M0 0 C38.62 0, 77.25 0, 160.1 0 M160.1 0 C160.1 112.82, 160.1 225.63, 160.1 290 M160.1 0 C160.1 97.33, 160.1 194.66, 160.1 290 M160.1 290 C108.34 290, 56.58 290, 0 290 M160.1 290 C101.53 290, 42.95 290, 0 290 M0 290 C0 198.11, 0 106.21, 0 0 M0 290 C0 215.15, 0 140.31, 0 0" stroke="#1e1e1e" stroke-width="2" fill="none"></path></g><g transform="translate(801.3405996385582 146.04485460622766) rotate(0 28.924293518066406 9.20600297162855)"><text x="28.924293518066406" y="13.529134462211571" font-family="Helvetica, Segoe UI Emoji" font-size="16.010439950658327px" fill="#1e1e1e" text-anchor="middle" style="white-space: pre;" direction="ltr" dominant-baseline="alphabetic">Grafana</text></g><g stroke-linecap="round"><g transform="translate(190.11744944490619 47.60728271807358) rotate(0 160.00000000000003 0)"><path d="M0 0 C124.57 -0.26, 250.01 -0.43, 320 0 M0 0 C97.68 -0.45, 196.13 -0.43, 320 0" stroke="#1e1e1e" stroke-width="2" fill="none"></path></g><g transform="translate(190.11744944490619 47.60728271807358) rotate(0 160.00000000000003 0)"><path d="M296.49 8.49 C304.46 4.26, 313.65 0.7, 320 0 M296.49 8.49 C302.91 6.63, 310.46 4.06, 320 0" stroke="#1e1e1e" stroke-width="2" fill="none"></path></g><g transform="translate(190.11744944490619 47.60728271807358) rotate(0 160.00000000000003 0)"><path d="M296.53 -8.61 C304.42 -6.14, 313.59 -2.99, 320 0 M296.53 -8.61 C303.03 -5.22, 310.58 -2.55, 320 0" stroke="#1e1e1e" stroke-width="2" fill="none"></path></g></g><mask></mask><g stroke-linecap="round"><g transform="translate(190.11744944490619 122.54766129213795) rotate(0 35.53041474557327 0)"><path d="M0.51 0 C17.72 -0.86, 35.64 0.58, 70.55 0 M0.51 0 C26.23 0.12, 51.13 1.47, 70.55 0" stroke="#1e1e1e" stroke-width="2" fill="none"></path></g><g transform="translate(190.11744944490619 122.54766129213795) rotate(0 35.53041474557327 0)"><path d="M47.38 9.38 C52.46 5.79, 58.23 4.8, 70.55 0 M47.38 9.38 C56.42 5.82, 64.68 3.84, 70.55 0" stroke="#1e1e1e" stroke-width="2" fill="none"></path></g><g transform="translate(190.11744944490619 122.54766129213795) rotate(0 35.53041474557327 0)"><path d="M46.77 -7.71 C51.98 -6.87, 57.91 -3.42, 70.55 0 M46.77 -7.71 C56.11 -5.2, 64.58 -1.11, 70.55 0" stroke="#1e1e1e" stroke-width="2" fill="none"></path></g></g><mask></mask><g stroke-linecap="round"><g transform="translate(440.2805736739425 122.54766129213795) rotate(0 35 0)"><path d="M0 0 C18.45 -0.85, 39.66 1.43, 70 0 M0 0 C23.88 0.29, 49.51 -0.06, 70 0" stroke="#1e1e1e" stroke-width="2" fill="none"></path></g><g transform="translate(440.2805736739425 122.54766129213795) rotate(0 35 0)"><path d="M46.52 8.58 C51.89 5.09, 59.97 4.95, 70 0 M46.52 8.58 C54.32 6.29, 63.82 2.96, 70 0" stroke="#1e1e1e" stroke-width="2" fill="none"></path></g><g transform="translate(440.2805736739425 122.54766129213795) rotate(0 35 0)"><path d="M46.5 -8.52 C51.77 -7.18, 59.85 -2.5, 70 0 M46.5 -8.52 C54.18 -4.87, 63.69 -2.27, 70 0" stroke="#1e1e1e" stroke-width="2" fill="none"></path></g></g><mask></mask><g stroke-linecap="round"><g transform="translate(190.11744944490619 197.59659856084886) rotate(0 35.53041474557327 0)"><path d="M0.51 0 C15.88 0.6, 34.7 1.4, 70.55 0 M0.51 0 C17.17 1.23, 32.59 0.79, 70.55 0" stroke="#1e1e1e" stroke-width="2" fill="none"></path></g><g transform="translate(190.11744944490619 197.59659856084886) rotate(0 35.53041474557327 0)"><path d="M47.24 9.02 C51.61 7.18, 59.4 5.85, 70.55 0 M47.24 9.02 C53.3 8.03, 58.2 5.56, 70.55 0" stroke="#1e1e1e" stroke-width="2" fill="none"></path></g><g transform="translate(190.11744944490619 197.59659856084886) rotate(0 35.53041474557327 0)"><path d="M46.89 -8.07 C51.27 -5.87, 59.13 -3.17, 70.55 0 M46.89 -8.07 C53.18 -5.22, 58.16 -3.84, 70.55 0" stroke="#1e1e1e" stroke-width="2" fill="none"></path></g></g><mask></mask><g stroke-linecap="round"><g transform="translate(440.2805736739425 197.59659856084886) rotate(0 35.530414745573296 0)"><path d="M0.51 0 C18.36 1.51, 36.88 -1.08, 70.55 0 M0.51 0 C28.47 -0.09, 55.05 -0.57, 70.55 0" stroke="#1e1e1e" stroke-width="2" fill="none"></path></g><g transform="translate(440.2805736739425 197.59659856084886) rotate(0 35.530414745573296 0)"><path d="M46.93 8.17 C53.09 7.34, 59.87 2.68, 70.55 0 M46.93 8.17 C57.02 5.34, 65.69 1.71, 70.55 0" stroke="#1e1e1e" stroke-width="2" fill="none"></path></g><g transform="translate(440.2805736739425 197.59659856084886) rotate(0 35.530414745573296 0)"><path d="M47.2 -8.93 C53.19 -5.43, 59.89 -5.77, 70.55 0 M47.2 -8.93 C57.12 -5.16, 65.68 -2.2, 70.55 0" stroke="#1e1e1e" stroke-width="2" fill="none"></path></g></g><mask></mask><g stroke-linecap="round"><g transform="translate(190.11744944490619 272.6455358295598) rotate(0 35.53041474557327 0)"><path d="M0.51 0 C18.03 0.89, 31.86 1.67, 70.55 0 M0.51 0 C19.21 -0.16, 36.88 0.16, 70.55 0" stroke="#1e1e1e" stroke-width="2" fill="none"></path></g><g transform="translate(190.11744944490619 272.6455358295598) rotate(0 35.53041474557327 0)"><path d="M47.07 8.59 C53.73 7.5, 56.64 6.26, 70.55 0 M47.07 8.59 C53.62 6.64, 59.22 4.74, 70.55 0" stroke="#1e1e1e" stroke-width="2" fill="none"></path></g><g transform="translate(190.11744944490619 272.6455358295598) rotate(0 35.53041474557327 0)"><path d="M47.05 -8.51 C53.61 -5.59, 56.53 -2.82, 70.55 0 M47.05 -8.51 C53.76 -6.03, 59.36 -3.5, 70.55 0" stroke="#1e1e1e" stroke-width="2" fill="none"></path></g></g><mask></mask><g stroke-linecap="round"><g transform="translate(440.2805736739425 272.6455358295598) rotate(0 35 0)"><path d="M0 0 C17.83 -1.88, 35.49 -1.2, 70 0 M0 0 C27.73 -0.33, 55.29 0.55, 70 0" stroke="#1e1e1e" stroke-width="2" fill="none"></path></g><g transform="translate(440.2805736739425 272.6455358295598) rotate(0 35 0)"><path d="M46.6 8.81 C53.18 5.06, 59.6 3.62, 70 0 M46.6 8.81 C56.13 5.31, 65.55 2.76, 70 0" stroke="#1e1e1e" stroke-width="2" fill="none"></path></g><g transform="translate(440.2805736739425 272.6455358295598) rotate(0 35 0)"><path d="M46.41 -8.29 C53.05 -7.91, 59.51 -5.23, 70 0 M46.41 -8.29 C56.17 -5.14, 65.67 -1.04, 70 0" stroke="#1e1e1e" stroke-width="2" fill="none"></path></g></g><mask></mask><g stroke-linecap="round"><g transform="translate(670.4306479646559 155) rotate(0 40 0)"><path d="M0 0 C23.06 1.34, 48.29 1.41, 80 0 M0 0 C31.6 0.42, 64.03 -0.05, 80 0" stroke="#1e1e1e" stroke-width="2" fill="none"></path></g><g transform="translate(670.4306479646559 155) rotate(0 40 0)"><path d="M56.54 8.63 C62.19 7.58, 70.08 5, 80 0 M56.54 8.63 C65.79 5.93, 75.93 2.06, 80 0" stroke="#1e1e1e" stroke-width="2" fill="none"></path></g><g transform="translate(670.4306479646559 155) rotate(0 40 0)"><path d="M56.48 -8.47 C62.25 -4.27, 70.15 -1.6, 80 0 M56.48 -8.47 C65.85 -4.43, 76.01 -1.55, 80 0" stroke="#1e1e1e" stroke-width="2" fill="none"></path></g></g><mask></mask></svg>